{"title":"DJ Khaled Ft. Chris Brown, August Alsina, Fetty Wap - Gold Slugs","uid":12862511,"size":134490150,"categoryP":"video","categoryS":"music_videos","magnet":"?xt=urn:btih:89ca794e087d1bad8977fdcc9d941f636ff6d07a&amp;dn=DJ+Khaled+Ft.+Chris+Brown%2C+August+Alsina%2C+Fetty+Wap+-+Gold+Slugs&amp;tr=udp%3A%2F%2Ftracker.leechers-paradise.org%3A6969&amp;tr=udp%3A%2F%2Fzer0day.ch%3A1337&amp;tr=udp%3A%2F%2Fopen.demonii.com%3A1337&amp;tr=udp%3A%2F%2Ftracker.coppersurfer.tk%3A6969&amp;tr=udp%3A%2F%2Fexodus.desync.com%3A6969","seeders":1,"leechers":0,"uploader":"MusicVideos-HQ","files":1,"time":1448753875,"description":"General\r\n\r\nFormat                         : MPEG-4\r\nFormat profile                 : Base Media\r\nCodec ID                       : isom\r\nFile size                      : 128 MiB\r\nDuration                       : 5mn 24s\r\nOverall bit rate               : 3 318 Kbps\r\nWriting application            : Lavf56.40.101\r\n\r\nVideo\r\nID                             : 1\r\nFormat                         : AVC\r\nFormat/Info                    : Advanced Video Codec\r\nFormat profile                 :   \r\nFormat settings, CABAC         : Yes\r\nFormat settings, ReFrames      : 3 frames\r\nCodec ID                       : avc1\r\nCodec ID/Info                  : Advanced Video Coding\r\nDuration                       : 5mn 24s\r\nBit rate                       : 3 187 Kbps\r\nWidth                          : 1 920 pixels\r\nHeight                         : 1 080 pixels\r\nDisplay aspect ratio           : 16:9\r\nFrame rate mode                : Variable\r\nFrame rate                     : 23.976 fps\r\nMinimum frame rate             : 23.974 fps\r\nMaximum frame rate             : 90 000.000 fps\r\nColor space                    : YUV\r\nChroma subsampling             : 4:2:0\r\nBit depth                      : 8 bits\r\nScan type                      : Progressive\r\nBits/(Pixel*Frame)             : 0.064\r\nStream size                    : 123 MiB (96%)\r\nColor range                    : Limited\r\nColor primaries                : BT.709\r\nTransfer characteristics       : BT.709\r\nMatrix coefficients            : BT.709\r\n\r\nAudio\r\nID                             : 2\r\nFormat                         : AAC\r\nFormat/Info                    : Advanced Audio Codec\r\nFormat profile                 : LC\r\nCodec ID                       : 40\r\nDuration                       : 5mn 24s\r\nBit rate mode                  : Constant\r\nBit rate                       : 126 Kbps\r\nChannel(s)                     : 2 channels\r\nChannel positions              : Front: L R\r\nSampling rate                  : 44.1 KHz\r\nCompression mode               : Lossy\r\nStream size                    : 4.85 MiB (4%)","torrent":{"xt":"urn:btih:89ca794e087d1bad8977fdcc9d941f636ff6d07a","amp;dn":"DJ+Khaled+Ft.+Chris+Brown%2C+August+Alsina%2C+Fetty+Wap+-+Gold+Slugs","amp;tr":["udp%3A%2F%2Ftracker.leechers-paradise.org%3A6969","udp%3A%2F%2Fzer0day.ch%3A1337","udp%3A%2F%2Fopen.demonii.com%3A1337","udp%3A%2F%2Ftracker.coppersurfer.tk%3A6969","udp%3A%2F%2Fexodus.desync.com%3A6969"],"infoHash":"89ca794e087d1bad8977fdcc9d941f636ff6d07a","infoHashBuffer":{"type":"Buffer","data":[137,202,121,78,8,125,27,173,137,119,253,204,157,148,31,99,111,246,208,122]},"announce":[],"urlList":[]}}